<!-- use https://www.iconfinder.com/search?q=coin&price=free -->

<?xml version="1.0" ?><svg id="Layer_1" style="enable-background:new 0 0 50 50;" version="1.1" viewBox="0 0 50 50" xml:space="preserve" xmlns="http://www.w3.org/2000/svg" xmlns:xlink="http://www.w3.org/1999/xlink"><style type="text/css">
	.st0{fill:#F0C4DB;}
	.st1{fill:#FF9D9C;}
	.st2{fill:#9BEAF9;}
	.st3{fill:#E9F4BC;}
	.st4{fill:#505050;}
	.st5{fill:#FEBECC;}
	.st6{fill:#FFFFFF;}
	.st7{fill:#FDE4A1;}
	.st8{fill:#FEE7B5;}
	.st9{fill:#CDF6FC;}
	.st10{fill:#F2C6DD;}
	.st11{opacity:0.1;}
</style><g><path class="st8" d="M1.2,20.86c3.34,2.6,7.53,4.17,12.09,4.17c10.87,0,19.68-8.81,19.68-19.68c0-1.45-0.17-2.87-0.47-4.23H1.2   V20.86z"/><g><g><ellipse class="st1" cx="15.07" cy="10.55" rx="13.02" ry="6.51"/><path class="st6" d="M28.09,10.54C28.09,10.55,28.09,10.55,28.09,10.54c0,3.6-5.83,6.51-13.02,6.51S2.05,14.14,2.05,10.55     c0,0,0,0,0,0h0v6.51c0,3.6,5.83,6.51,13.02,6.51s13.02-2.91,13.02-6.51L28.09,10.54L28.09,10.54z"/><path class="st1" d="M15.1,17.05h-0.05c0.01,0,0.02,0,0.03,0S15.09,17.05,15.1,17.05z"/><path class="st1" d="M15.07,23.56c-7.19,0-13.02-2.91-13.02-6.51v6.51c0,3.6,5.83,6.51,13.02,6.51s13.02-2.91,13.02-6.51v-6.51     C28.09,20.65,22.26,23.56,15.07,23.56z"/><path class="st6" d="M15.07,30.07c-7.19,0-13.02-2.91-13.02-6.51v6.51c0,3.6,5.83,6.51,13.02,6.51s13.02-2.91,13.02-6.51v-6.51     C28.09,27.16,22.26,30.07,15.07,30.07z"/><path class="st1" d="M15.07,36.59c-7.19,0-13.02-2.91-13.02-6.51v6.51c0,3.6,5.83,6.51,13.02,6.51s13.02-2.91,13.02-6.51v-6.51     C28.09,33.67,22.26,36.59,15.07,36.59z"/><circle class="st7" cx="35.03" cy="35.11" r="13.02"/><path class="st3" d="M35.03,45.13c-5.52,0-10.02-4.49-10.02-10.02S29.51,25.1,35.03,25.1s10.02,4.49,10.02,10.02     S40.56,45.13,35.03,45.13z"/></g><g><path class="st4" d="M41.82,24.89c0.12,0.08,0.27,0.13,0.42,0.13c0.25,0,0.48-0.13,0.62-0.34c0.23-0.34,0.14-0.81-0.21-1.04     c-0.33-0.22-0.82-0.12-1.04,0.21c-0.11,0.17-0.15,0.37-0.11,0.57C41.54,24.61,41.65,24.78,41.82,24.89z"/><path class="st4" d="M44.32,24.95c-0.3-0.28-0.79-0.25-1.07,0.04c-0.13,0.15-0.2,0.34-0.19,0.54c0.01,0.2,0.1,0.39,0.24,0.52     c0.01,0.01,0.01,0.01,0.02,0.01c2.53,2.32,3.98,5.62,3.98,9.05c-0.01,6.76-5.51,12.26-12.26,12.27     c-6.76-0.01-12.26-5.51-12.27-12.27c0.01-6.75,5.51-12.25,12.27-12.26c1.79,0,3.52,0.37,5.14,1.12c0.37,0.17,0.83,0,1-0.36     c0.17-0.38,0-0.83-0.37-1c-1.82-0.84-3.76-1.26-5.77-1.26c-2.23,0-4.33,0.54-6.2,1.49v-5.78v-6.51c0-0.01,0-0.01,0-0.02     c-0.02-4.06-6.06-7.24-13.77-7.24c-7.7,0-13.73,3.17-13.76,7.23c0,0.01-0.01,0.02-0.01,0.03v26.04c0,4.07,6.05,7.26,13.77,7.26     c3,0,5.92-0.51,8.31-1.44c2.44,3.88,6.75,6.48,11.66,6.48c7.59,0,13.76-6.17,13.76-13.77C48.8,31.25,47.16,27.55,44.32,24.95z      M2.8,13.88c2.25,2.35,6.84,3.93,12.27,3.93c5.43,0,10.01-1.58,12.27-3.93v3.18c0,3.12-5.62,5.76-12.27,5.76     c-6.65,0-12.27-2.64-12.27-5.76V13.88z M15.07,4.79c6.65,0,12.27,2.64,12.27,5.76s-5.62,5.76-12.27,5.76S2.8,13.67,2.8,10.55     S8.42,4.79,15.07,4.79z M15.07,24.31c5.43,0,10.01-1.58,12.27-3.93v3.18c0,0.04,0.02,0.08,0.03,0.13     c-1.57,1.06-2.91,2.44-3.93,4.04c-2.29,1.03-5.25,1.59-8.36,1.59c-6.65,0-12.27-2.64-12.27-5.76v-3.18     C5.06,22.74,9.64,24.31,15.07,24.31z M15.07,30.82c2.61,0,5.12-0.38,7.29-1.08c-0.69,1.62-1.07,3.39-1.09,5.26     c-1.87,0.54-3.99,0.83-6.2,0.83c-6.65,0-12.27-2.64-12.27-5.76V26.9C5.06,29.25,9.64,30.82,15.07,30.82z M15.07,42.34     c-6.65,0-12.27-2.64-12.27-5.76v-3.18c2.26,2.35,6.84,3.93,12.27,3.93c2.21,0,4.35-0.28,6.27-0.8c0.17,1.62,0.63,3.14,1.3,4.54     C20.46,41.9,17.81,42.34,15.07,42.34z"/><path class="st4" d="M35.03,24.35c-5.94,0-10.77,4.83-10.77,10.77s4.83,10.77,10.77,10.77S45.8,41.05,45.8,35.11     S40.97,24.35,35.03,24.35z M35.03,44.38c-5.11,0-9.27-4.16-9.27-9.27s4.16-9.27,9.27-9.27S44.3,30,44.3,35.11     S40.14,44.38,35.03,44.38z"/><path class="st4" d="M35.03,31.47c0.8,0,1.45,0.65,1.45,1.45c0,0.41,0.34,0.75,0.75,0.75s0.75-0.34,0.75-0.75     c0-1.36-0.94-2.5-2.2-2.84v-0.49c0-0.41-0.34-0.75-0.75-0.75c-0.41,0-0.75,0.34-0.75,0.75v0.49c-1.26,0.33-2.2,1.47-2.2,2.84     c0,1.63,1.32,2.95,2.95,2.95c0.8,0,1.45,0.65,1.45,1.45s-0.65,1.45-1.45,1.45s-1.45-0.65-1.45-1.45c0-0.41-0.34-0.75-0.75-0.75     s-0.75,0.34-0.75,0.75c0,1.36,0.94,2.5,2.2,2.84v0.49c0,0.41,0.34,0.75,0.75,0.75c0.41,0,0.75-0.34,0.75-0.75v-0.49     c1.26-0.33,2.2-1.47,2.2-2.84c0-1.63-1.32-2.95-2.95-2.95c-0.8,0-1.45-0.65-1.45-1.45S34.23,31.47,35.03,31.47z"/></g></g></g></svg>